<?xml version="1.0" encoding="utf-8" standalone="no"?>
<!DOCTYPE svg PUBLIC "-//W3C//DTD SVG 1.1//EN"
  "http://www.w3.org/Graphics/SVG/1.1/DTD/svg11.dtd">
<!-- Created with matplotlib (https://matplotlib.org/) -->
<svg height="288pt" version="1.1" viewBox="0 0 288 288" width="288pt" xmlns="http://www.w3.org/2000/svg" xmlns:xlink="http://www.w3.org/1999/xlink">
 <metadata>
  <rdf:RDF xmlns:cc="http://creativecommons.org/ns#" xmlns:dc="http://purl.org/dc/elements/1.1/" xmlns:rdf="http://www.w3.org/1999/02/22-rdf-syntax-ns#">
   <cc:Work>
    <dc:type rdf:resource="http://purl.org/dc/dcmitype/StillImage"/>
    <dc:date>2022-07-22T10:46:46.183322</dc:date>
    <dc:format>image/svg+xml</dc:format>
    <dc:creator>
     <cc:Agent>
      <dc:title>Matplotlib v3.3.4, https://matplotlib.org/</dc:title>
     </cc:Agent>
    </dc:creator>
   </cc:Work>
  </rdf:RDF>
 </metadata>
 <defs>
  <style type="text/css">*{stroke-linecap:butt;stroke-linejoin:round;}</style>
 </defs>
 <g id="figure_1">
  <g id="patch_1">
   <path d="M 0 288 
L 288 288 
L 288 0 
L 0 0 
z
" style="fill:none;"/>
  </g>
  <g id="axes_1">
   <g id="patch_2">
    <path d="M 256.32 143.28 
C 256.32 129.00302 253.507746 114.864866 248.044183 101.674657 
C 242.580619 88.484448 234.571998 76.4987 224.476649 66.403351 
C 214.3813 56.308002 202.395552 48.299381 189.205343 42.835817 
C 176.015134 37.372254 161.87698 34.56 147.6 34.56 
C 133.32302 34.56 119.184866 37.372254 105.994657 42.835817 
C 92.804448 48.299381 80.8187 56.308002 70.723351 66.403351 
C 60.628002 76.4987 52.619381 88.484448 47.155817 101.674657 
C 41.692254 114.864866 38.88 129.00302 38.88 143.28 
C 38.88 157.55698 41.692254 171.695134 47.155817 184.885343 
C 52.619381 198.075552 60.628002 210.0613 70.723351 220.156649 
C 80.8187 230.251998 92.804448 238.260619 105.994657 243.724183 
C 119.184866 249.187746 133.32302 252 147.6 252 
C 161.87698 252 176.015134 249.187746 189.205343 243.724183 
C 202.395552 238.260619 214.3813 230.251998 224.476649 220.156649 
C 234.571998 210.0613 242.580619 198.075552 248.044183 184.885343 
C 253.507746 171.695134 256.32 157.55698 256.32 143.28 
M 147.6 143.28 
C 147.6 143.28 147.6 143.28 147.6 143.28 
C 147.6 143.28 147.6 143.28 147.6 143.28 
C 147.6 143.28 147.6 143.28 147.6 143.28 
C 147.6 143.28 147.6 143.28 147.6 143.28 
C 147.6 143.28 147.6 143.28 147.6 143.28 
C 147.6 143.28 147.6 143.28 147.6 143.28 
C 147.6 143.28 147.6 143.28 147.6 143.28 
C 147.6 143.28 147.6 143.28 147.6 143.28 
C 147.6 143.28 147.6 143.28 147.6 143.28 
C 147.6 143.28 147.6 143.28 147.6 143.28 
C 147.6 143.28 147.6 143.28 147.6 143.28 
C 147.6 143.28 147.6 143.28 147.6 143.28 
C 147.6 143.28 147.6 143.28 147.6 143.28 
C 147.6 143.28 147.6 143.28 147.6 143.28 
C 147.6 143.28 147.6 143.28 147.6 143.28 
C 147.6 143.28 147.6 143.28 147.6 143.28 
M 256.32 143.28 
z
" style="fill:#ffffff;"/>
   </g>
   <g id="patch_3">
    <path clip-path="url(#pcfe4437e91)" d="M 147.6 143.28 
C 147.6 143.28 147.6 143.28 147.6 143.28 
C 147.6 143.28 147.6 143.28 147.6 143.28 
L 138.895826 149.608312 
C 138.231838 148.69504 137.715703 147.682929 137.366393 146.609184 
C 137.017084 145.535438 136.838932 144.413376 136.838487 143.28424 
z
" style="fill:#1f77b4;stroke:#000000;stroke-linejoin:miter;"/>
   </g>
   <g id="patch_4">
    <path clip-path="url(#pcfe4437e91)" d="M 147.6 143.28 
C 147.6 143.28 147.6 143.28 147.6 143.28 
C 147.6 143.28 147.6 143.28 147.6 143.28 
L 144.077696 154.13019 
C 142.939256 153.760617 141.866042 153.214163 140.897503 152.510914 
C 139.928963 151.807664 139.077111 150.956343 138.373259 149.988241 
z
" style="fill:#1f77b4;stroke:#000000;stroke-linejoin:miter;"/>
   </g>
   <g id="patch_5">
    <path clip-path="url(#pcfe4437e91)" d="M 147.6 143.28 
C 147.6 143.28 147.6 143.28 147.6 143.28 
C 147.6 143.28 147.6 143.28 147.6 143.28 
L 152.941335 159.708027 
C 151.217649 160.268459 149.41645 160.554131 147.603944 160.554545 
C 145.791439 160.554959 143.990109 160.270109 142.266168 159.710464 
z
" style="fill:#1f77b4;stroke:#000000;stroke-linejoin:miter;"/>
   </g>
   <g id="patch_6">
    <path clip-path="url(#pcfe4437e91)" d="M 147.6 143.28 
C 147.6 143.28 147.6 143.28 147.6 143.28 
C 147.6 143.28 147.6 143.28 147.6 143.28 
L 180.321448 167.047078 
C 177.827723 170.480327 174.809122 173.499807 171.376599 175.99453 
C 167.944076 178.489254 164.14021 180.428277 160.104818 181.740326 
z
" style="fill:#1f77b4;stroke:#000000;stroke-linejoin:miter;"/>
   </g>
   <g id="patch_7">
    <path clip-path="url(#pcfe4437e91)" d="M 147.6 143.28 
C 147.6 143.28 147.6 143.28 147.6 143.28 
C 147.6 143.28 147.6 143.28 147.6 143.28 
L 251.142857 143.273512 
C 251.143538 154.13759 249.434369 164.934395 246.078174 175.267069 
C 242.721979 185.599743 237.760389 195.340117 231.375777 204.130164 
z
" style="fill:#1f77b4;stroke:#000000;stroke-linejoin:miter;"/>
   </g>
   <g id="patch_8">
    <path clip-path="url(#pcfe4437e91)" d="M 147.6 143.28 
C 147.6 143.28 147.6 143.28 147.6 143.28 
C 147.6 143.28 147.6 143.28 147.6 143.28 
L 216.532117 93.198265 
C 221.786868 100.430864 225.870724 108.445625 228.633574 116.94795 
C 231.396425 125.450276 232.803999 134.334701 232.804559 143.274661 
z
" style="fill:#1f77b4;stroke:#000000;stroke-linejoin:miter;"/>
   </g>
   <g id="patch_9">
    <path clip-path="url(#pcfe4437e91)" d="M 147.6 143.28 
C 147.6 143.28 147.6 143.28 147.6 143.28 
C 147.6 143.28 147.6 143.28 147.6 143.28 
L 160.469128 103.682311 
C 164.623856 105.032585 168.540302 107.028377 172.074511 109.596328 
C 175.608719 112.16428 178.716851 115.272536 181.284659 118.806848 
z
" style="fill:#1f77b4;stroke:#000000;stroke-linejoin:miter;"/>
   </g>
   <g id="patch_10">
    <path clip-path="url(#pcfe4437e91)" d="M 147.6 143.28 
C 147.6 143.28 147.6 143.28 147.6 143.28 
C 147.6 143.28 147.6 143.28 147.6 143.28 
L 142.614862 127.930213 
C 144.225416 127.407155 145.908301 127.140819 147.601662 127.140993 
C 149.295023 127.141167 150.977855 127.407851 152.5883 127.931241 
z
" style="fill:#1f77b4;stroke:#000000;stroke-linejoin:miter;"/>
   </g>
   <g id="patch_11">
    <path clip-path="url(#pcfe4437e91)" d="M 147.6 143.28 
C 147.6 143.28 147.6 143.28 147.6 143.28 
C 147.6 143.28 147.6 143.28 147.6 143.28 
L 133.331034 132.908576 
C 134.41924 131.411426 135.736326 130.09483 137.23388 129.00718 
C 138.731434 127.919531 140.39088 127.07432 142.151222 126.502615 
z
" style="fill:#1f77b4;stroke:#000000;stroke-linejoin:miter;"/>
   </g>
   <g id="patch_12">
    <path clip-path="url(#pcfe4437e91)" d="M 147.6 143.28 
C 147.6 143.28 147.6 143.28 147.6 143.28 
C 147.6 143.28 147.6 143.28 147.6 143.28 
L 133.679862 143.27626 
C 133.680255 141.81571 133.910514 140.364281 134.362175 138.975322 
C 134.813837 137.586364 135.481299 136.277104 136.340028 135.095669 
z
" style="fill:#1f77b4;stroke:#000000;stroke-linejoin:miter;"/>
   </g>
   <g id="matplotlib.axis_1">
    <g id="xtick_1">
     <g id="line2d_1">
      <path clip-path="url(#pcfe4437e91)" d="M 147.6 143.28 
L 256.32 143.28 
" style="fill:none;stroke:#b0b0b0;stroke-linecap:square;stroke-width:0.8;"/>
     </g>
     <g id="text_1">
      <!-- 0° -->
      <g transform="translate(261.949531 147.143125)scale(0.14 -0.14)">
       <defs>
        <path d="M 46 36.53125 
Q 46 50.203125 43.4375 55.78125 
Q 40.875 61.375 34.8125 61.375 
Q 28.765625 61.375 26.171875 55.78125 
Q 23.578125 50.203125 23.578125 36.53125 
Q 23.578125 22.703125 26.171875 17.03125 
Q 28.765625 11.375 34.8125 11.375 
Q 40.828125 11.375 43.40625 17.03125 
Q 46 22.703125 46 36.53125 
z
M 64.796875 36.375 
Q 64.796875 18.265625 56.984375 8.421875 
Q 49.171875 -1.421875 34.8125 -1.421875 
Q 20.40625 -1.421875 12.59375 8.421875 
Q 4.78125 18.265625 4.78125 36.375 
Q 4.78125 54.546875 12.59375 64.375 
Q 20.40625 74.21875 34.8125 74.21875 
Q 49.171875 74.21875 56.984375 64.375 
Q 64.796875 54.546875 64.796875 36.375 
z
" id="DejaVuSans-Bold-48"/>
        <path d="M 25 67 
Q 21.484375 67 19.046875 64.546875 
Q 16.609375 62.109375 16.609375 58.59375 
Q 16.609375 55.078125 19.015625 52.6875 
Q 21.4375 50.296875 25 50.296875 
Q 28.515625 50.296875 30.953125 52.703125 
Q 33.40625 55.125 33.40625 58.59375 
Q 33.40625 62.109375 30.9375 64.546875 
Q 28.46875 67 25 67 
z
M 25 74.90625 
Q 28.21875 74.90625 31.203125 73.65625 
Q 34.1875 72.40625 36.53125 70.125 
Q 38.8125 67.78125 40.015625 64.84375 
Q 41.21875 61.921875 41.21875 58.59375 
Q 41.21875 55.328125 40.015625 52.375 
Q 38.8125 49.421875 36.625 47.21875 
Q 34.28125 44.875 31.25 43.625 
Q 28.21875 42.390625 24.90625 42.390625 
Q 18.015625 42.390625 13.34375 47.046875 
Q 8.6875 51.703125 8.6875 58.59375 
Q 8.6875 65.484375 13.390625 70.1875 
Q 18.109375 74.90625 25 74.90625 
z
" id="DejaVuSans-Bold-176"/>
       </defs>
       <use xlink:href="#DejaVuSans-Bold-48"/>
       <use x="69.580078" xlink:href="#DejaVuSans-Bold-176"/>
      </g>
     </g>
    </g>
    <g id="xtick_2">
     <g id="line2d_2">
      <path clip-path="url(#pcfe4437e91)" d="M 147.6 143.28 
L 224.476649 66.403351 
" style="fill:none;stroke:#b0b0b0;stroke-linecap:square;stroke-width:0.8;"/>
     </g>
     <g id="text_2">
      <!-- 45° -->
      <g transform="translate(221.135207 60.366981)scale(0.14 -0.14)">
       <defs>
        <path d="M 36.8125 57.421875 
L 16.21875 26.90625 
L 36.8125 26.90625 
z
M 33.6875 72.90625 
L 54.59375 72.90625 
L 54.59375 26.90625 
L 64.984375 26.90625 
L 64.984375 13.28125 
L 54.59375 13.28125 
L 54.59375 0 
L 36.8125 0 
L 36.8125 13.28125 
L 4.5 13.28125 
L 4.5 29.390625 
z
" id="DejaVuSans-Bold-52"/>
        <path d="M 10.59375 72.90625 
L 57.328125 72.90625 
L 57.328125 59.078125 
L 25.59375 59.078125 
L 25.59375 47.796875 
Q 27.734375 48.390625 29.90625 48.703125 
Q 32.078125 49.03125 34.421875 49.03125 
Q 47.75 49.03125 55.171875 42.359375 
Q 62.59375 35.6875 62.59375 23.78125 
Q 62.59375 11.96875 54.515625 5.265625 
Q 46.4375 -1.421875 32.078125 -1.421875 
Q 25.875 -1.421875 19.796875 -0.21875 
Q 13.71875 0.984375 7.71875 3.421875 
L 7.71875 18.21875 
Q 13.671875 14.796875 19.015625 13.078125 
Q 24.359375 11.375 29.109375 11.375 
Q 35.9375 11.375 39.859375 14.71875 
Q 43.796875 18.0625 43.796875 23.78125 
Q 43.796875 29.546875 39.859375 32.859375 
Q 35.9375 36.1875 29.109375 36.1875 
Q 25.046875 36.1875 20.453125 35.125 
Q 15.875 34.078125 10.59375 31.890625 
z
" id="DejaVuSans-Bold-53"/>
       </defs>
       <use xlink:href="#DejaVuSans-Bold-52"/>
       <use x="69.580078" xlink:href="#DejaVuSans-Bold-53"/>
       <use x="139.160156" xlink:href="#DejaVuSans-Bold-176"/>
      </g>
     </g>
    </g>
    <g id="xtick_3">
     <g id="line2d_3">
      <path clip-path="url(#pcfe4437e91)" d="M 147.6 143.28 
L 147.6 34.56 
" style="fill:none;stroke:#b0b0b0;stroke-linecap:square;stroke-width:0.8;"/>
     </g>
     <g id="text_3">
      <!-- 90° -->
      <g transform="translate(134.359062 24.423125)scale(0.14 -0.14)">
       <defs>
        <path d="M 10.015625 1.609375 
L 10.015625 15.09375 
Q 14.5 12.984375 18.59375 11.9375 
Q 22.703125 10.890625 26.703125 10.890625 
Q 35.109375 10.890625 39.796875 15.546875 
Q 44.484375 20.21875 45.3125 29.390625 
Q 42 26.953125 38.234375 25.734375 
Q 34.46875 24.515625 30.078125 24.515625 
Q 18.890625 24.515625 12.03125 31.03125 
Q 5.171875 37.546875 5.171875 48.1875 
Q 5.171875 59.96875 12.8125 67.046875 
Q 20.453125 74.125 33.296875 74.125 
Q 47.5625 74.125 55.375 64.5 
Q 63.1875 54.890625 63.1875 37.3125 
Q 63.1875 19.234375 54.046875 8.90625 
Q 44.921875 -1.421875 29 -1.421875 
Q 23.875 -1.421875 19.1875 -0.65625 
Q 14.5 0.09375 10.015625 1.609375 
z
M 33.203125 36.71875 
Q 38.140625 36.71875 40.625 39.90625 
Q 43.109375 43.109375 43.109375 49.515625 
Q 43.109375 55.859375 40.625 59.078125 
Q 38.140625 62.3125 33.203125 62.3125 
Q 28.265625 62.3125 25.78125 59.078125 
Q 23.296875 55.859375 23.296875 49.515625 
Q 23.296875 43.109375 25.78125 39.90625 
Q 28.265625 36.71875 33.203125 36.71875 
z
" id="DejaVuSans-Bold-57"/>
       </defs>
       <use xlink:href="#DejaVuSans-Bold-57"/>
       <use x="69.580078" xlink:href="#DejaVuSans-Bold-48"/>
       <use x="139.160156" xlink:href="#DejaVuSans-Bold-176"/>
      </g>
     </g>
    </g>
    <g id="xtick_4">
     <g id="line2d_4">
      <path clip-path="url(#pcfe4437e91)" d="M 147.6 143.28 
L 70.723351 66.403351 
" style="fill:none;stroke:#b0b0b0;stroke-linecap:square;stroke-width:0.8;"/>
     </g>
     <g id="text_4">
      <!-- 135° -->
      <g transform="translate(42.71245 60.366981)scale(0.14 -0.14)">
       <defs>
        <path d="M 11.71875 12.984375 
L 28.328125 12.984375 
L 28.328125 60.109375 
L 11.28125 56.59375 
L 11.28125 69.390625 
L 28.21875 72.90625 
L 46.09375 72.90625 
L 46.09375 12.984375 
L 62.703125 12.984375 
L 62.703125 0 
L 11.71875 0 
z
" id="DejaVuSans-Bold-49"/>
        <path d="M 46.578125 39.3125 
Q 53.953125 37.40625 57.78125 32.6875 
Q 61.625 27.984375 61.625 20.703125 
Q 61.625 9.859375 53.3125 4.21875 
Q 45.015625 -1.421875 29.109375 -1.421875 
Q 23.484375 -1.421875 17.84375 -0.515625 
Q 12.203125 0.390625 6.6875 2.203125 
L 6.6875 16.703125 
Q 11.96875 14.0625 17.15625 12.71875 
Q 22.359375 11.375 27.390625 11.375 
Q 34.859375 11.375 38.84375 13.953125 
Q 42.828125 16.546875 42.828125 21.390625 
Q 42.828125 26.375 38.75 28.9375 
Q 34.671875 31.5 26.703125 31.5 
L 19.1875 31.5 
L 19.1875 43.609375 
L 27.09375 43.609375 
Q 34.1875 43.609375 37.640625 45.828125 
Q 41.109375 48.046875 41.109375 52.59375 
Q 41.109375 56.78125 37.734375 59.078125 
Q 34.375 61.375 28.21875 61.375 
Q 23.6875 61.375 19.046875 60.34375 
Q 14.40625 59.328125 9.8125 57.328125 
L 9.8125 71.09375 
Q 15.375 72.65625 20.84375 73.4375 
Q 26.3125 74.21875 31.59375 74.21875 
Q 45.796875 74.21875 52.84375 69.546875 
Q 59.90625 64.890625 59.90625 55.515625 
Q 59.90625 49.125 56.53125 45.046875 
Q 53.171875 40.96875 46.578125 39.3125 
z
" id="DejaVuSans-Bold-51"/>
       </defs>
       <use xlink:href="#DejaVuSans-Bold-49"/>
       <use x="69.580078" xlink:href="#DejaVuSans-Bold-51"/>
       <use x="139.160156" xlink:href="#DejaVuSans-Bold-53"/>
       <use x="208.740234" xlink:href="#DejaVuSans-Bold-176"/>
      </g>
     </g>
    </g>
    <g id="xtick_5">
     <g id="line2d_5">
      <path clip-path="url(#pcfe4437e91)" d="M 147.6 143.28 
L 38.88 143.28 
" style="fill:none;stroke:#b0b0b0;stroke-linecap:square;stroke-width:0.8;"/>
     </g>
     <g id="text_5">
      <!-- 180° -->
      <g transform="translate(6.768594 147.143125)scale(0.14 -0.14)">
       <defs>
        <path d="M 34.8125 32.625 
Q 29.546875 32.625 26.703125 29.734375 
Q 23.875 26.859375 23.875 21.484375 
Q 23.875 16.109375 26.703125 13.25 
Q 29.546875 10.40625 34.8125 10.40625 
Q 40.046875 10.40625 42.828125 13.25 
Q 45.609375 16.109375 45.609375 21.484375 
Q 45.609375 26.90625 42.828125 29.765625 
Q 40.046875 32.625 34.8125 32.625 
z
M 21.09375 38.8125 
Q 14.453125 40.828125 11.078125 44.96875 
Q 7.71875 49.125 7.71875 55.328125 
Q 7.71875 64.546875 14.59375 69.375 
Q 21.484375 74.21875 34.8125 74.21875 
Q 48.046875 74.21875 54.921875 69.40625 
Q 61.8125 64.59375 61.8125 55.328125 
Q 61.8125 49.125 58.421875 44.96875 
Q 55.03125 40.828125 48.390625 38.8125 
Q 55.8125 36.765625 59.59375 32.15625 
Q 63.375 27.546875 63.375 20.515625 
Q 63.375 9.671875 56.171875 4.125 
Q 48.96875 -1.421875 34.8125 -1.421875 
Q 20.609375 -1.421875 13.359375 4.125 
Q 6.109375 9.671875 6.109375 20.515625 
Q 6.109375 27.546875 9.890625 32.15625 
Q 13.671875 36.765625 21.09375 38.8125 
z
M 25.484375 53.421875 
Q 25.484375 49.078125 27.90625 46.734375 
Q 30.328125 44.390625 34.8125 44.390625 
Q 39.203125 44.390625 41.59375 46.734375 
Q 44 49.078125 44 53.421875 
Q 44 57.765625 41.59375 60.078125 
Q 39.203125 62.40625 34.8125 62.40625 
Q 30.328125 62.40625 27.90625 60.0625 
Q 25.484375 57.71875 25.484375 53.421875 
z
" id="DejaVuSans-Bold-56"/>
       </defs>
       <use xlink:href="#DejaVuSans-Bold-49"/>
       <use x="69.580078" xlink:href="#DejaVuSans-Bold-56"/>
       <use x="139.160156" xlink:href="#DejaVuSans-Bold-48"/>
       <use x="208.740234" xlink:href="#DejaVuSans-Bold-176"/>
      </g>
     </g>
    </g>
    <g id="xtick_6">
     <g id="line2d_6">
      <path clip-path="url(#pcfe4437e91)" d="M 147.6 143.28 
L 70.723351 220.156649 
" style="fill:none;stroke:#b0b0b0;stroke-linecap:square;stroke-width:0.8;"/>
     </g>
     <g id="text_6">
      <!-- 225° -->
      <g transform="translate(42.71245 233.919269)scale(0.14 -0.14)">
       <defs>
        <path d="M 28.8125 13.8125 
L 60.890625 13.8125 
L 60.890625 0 
L 7.90625 0 
L 7.90625 13.8125 
L 34.515625 37.3125 
Q 38.09375 40.53125 39.796875 43.609375 
Q 41.5 46.6875 41.5 50 
Q 41.5 55.125 38.0625 58.25 
Q 34.625 61.375 28.90625 61.375 
Q 24.515625 61.375 19.28125 59.5 
Q 14.0625 57.625 8.109375 53.90625 
L 8.109375 69.921875 
Q 14.453125 72.015625 20.65625 73.109375 
Q 26.859375 74.21875 32.8125 74.21875 
Q 45.90625 74.21875 53.15625 68.453125 
Q 60.40625 62.703125 60.40625 52.390625 
Q 60.40625 46.4375 57.328125 41.28125 
Q 54.25 36.140625 44.390625 27.484375 
z
" id="DejaVuSans-Bold-50"/>
       </defs>
       <use xlink:href="#DejaVuSans-Bold-50"/>
       <use x="69.580078" xlink:href="#DejaVuSans-Bold-50"/>
       <use x="139.160156" xlink:href="#DejaVuSans-Bold-53"/>
       <use x="208.740234" xlink:href="#DejaVuSans-Bold-176"/>
      </g>
     </g>
    </g>
    <g id="xtick_7">
     <g id="line2d_7">
      <path clip-path="url(#pcfe4437e91)" d="M 147.6 143.28 
L 147.6 252 
" style="fill:none;stroke:#b0b0b0;stroke-linecap:square;stroke-width:0.8;"/>
     </g>
     <g id="text_7">
      <!-- 270° -->
      <g transform="translate(129.488594 269.863125)scale(0.14 -0.14)">
       <defs>
        <path d="M 6.6875 72.90625 
L 61.625 72.90625 
L 61.625 62.3125 
L 33.203125 0 
L 14.890625 0 
L 41.796875 59.078125 
L 6.6875 59.078125 
z
" id="DejaVuSans-Bold-55"/>
       </defs>
       <use xlink:href="#DejaVuSans-Bold-50"/>
       <use x="69.580078" xlink:href="#DejaVuSans-Bold-55"/>
       <use x="139.160156" xlink:href="#DejaVuSans-Bold-48"/>
       <use x="208.740234" xlink:href="#DejaVuSans-Bold-176"/>
      </g>
     </g>
    </g>
    <g id="xtick_8">
     <g id="line2d_8">
      <path clip-path="url(#pcfe4437e91)" d="M 147.6 143.28 
L 224.476649 220.156649 
" style="fill:none;stroke:#b0b0b0;stroke-linecap:square;stroke-width:0.8;"/>
     </g>
     <g id="text_8">
      <!-- 315° -->
      <g transform="translate(216.264738 233.919269)scale(0.14 -0.14)">
       <use xlink:href="#DejaVuSans-Bold-51"/>
       <use x="69.580078" xlink:href="#DejaVuSans-Bold-49"/>
       <use x="139.160156" xlink:href="#DejaVuSans-Bold-53"/>
       <use x="208.740234" xlink:href="#DejaVuSans-Bold-176"/>
      </g>
     </g>
    </g>
   </g>
   <g id="matplotlib.axis_2"/>
   <g id="patch_13">
    <path d="M 256.32 143.28 
C 256.32 129.00302 253.507746 114.864866 248.044183 101.674657 
C 242.580619 88.484448 234.571998 76.4987 224.476649 66.403351 
C 214.3813 56.308002 202.395552 48.299381 189.205343 42.835817 
C 176.015134 37.372254 161.87698 34.56 147.6 34.56 
C 133.32302 34.56 119.184866 37.372254 105.994657 42.835817 
C 92.804448 48.299381 80.8187 56.308002 70.723351 66.403351 
C 60.628002 76.4987 52.619381 88.484448 47.155817 101.674657 
C 41.692254 114.864866 38.88 129.00302 38.88 143.28 
C 38.88 157.55698 41.692254 171.695134 47.155817 184.885343 
C 52.619381 198.075552 60.628002 210.0613 70.723351 220.156649 
C 80.8187 230.251998 92.804448 238.260619 105.994657 243.724183 
C 119.184866 249.187746 133.32302 252 147.6 252 
C 161.87698 252 176.015134 249.187746 189.205343 243.724183 
C 202.395552 238.260619 214.3813 230.251998 224.476649 220.156649 
C 234.571998 210.0613 242.580619 198.075552 248.044183 184.885343 
C 253.507746 171.695134 256.32 157.55698 256.32 143.28 
" style="fill:none;stroke:#000000;stroke-linecap:square;stroke-linejoin:miter;stroke-width:0.8;"/>
   </g>
   <g id="text_9">
    <!-- 0.531 -->
    <g transform="translate(121.031062 7.785313)scale(0.168 -0.168)">
     <defs>
      <path d="M 10.203125 18.890625 
L 27.78125 18.890625 
L 27.78125 0 
L 10.203125 0 
z
" id="DejaVuSans-Bold-46"/>
     </defs>
     <use xlink:href="#DejaVuSans-Bold-48"/>
     <use x="69.580078" xlink:href="#DejaVuSans-Bold-46"/>
     <use x="107.568359" xlink:href="#DejaVuSans-Bold-53"/>
     <use x="177.148438" xlink:href="#DejaVuSans-Bold-51"/>
     <use x="246.728516" xlink:href="#DejaVuSans-Bold-49"/>
    </g>
   </g>
  </g>
 </g>
 <defs>
  <clipPath id="pcfe4437e91">
   <path d="M 256.32 143.28 
C 256.32 129.00302 253.507746 114.864866 248.044183 101.674657 
C 242.580619 88.484448 234.571998 76.4987 224.476649 66.403351 
C 214.3813 56.308002 202.395552 48.299381 189.205343 42.835817 
C 176.015134 37.372254 161.87698 34.56 147.6 34.56 
C 133.32302 34.56 119.184866 37.372254 105.994657 42.835817 
C 92.804448 48.299381 80.8187 56.308002 70.723351 66.403351 
C 60.628002 76.4987 52.619381 88.484448 47.155817 101.674657 
C 41.692254 114.864866 38.88 129.00302 38.88 143.28 
C 38.88 157.55698 41.692254 171.695134 47.155817 184.885343 
C 52.619381 198.075552 60.628002 210.0613 70.723351 220.156649 
C 80.8187 230.251998 92.804448 238.260619 105.994657 243.724183 
C 119.184866 249.187746 133.32302 252 147.6 252 
C 161.87698 252 176.015134 249.187746 189.205343 243.724183 
C 202.395552 238.260619 214.3813 230.251998 224.476649 220.156649 
C 234.571998 210.0613 242.580619 198.075552 248.044183 184.885343 
C 253.507746 171.695134 256.32 157.55698 256.32 143.28 
M 147.6 143.28 
C 147.6 143.28 147.6 143.28 147.6 143.28 
C 147.6 143.28 147.6 143.28 147.6 143.28 
C 147.6 143.28 147.6 143.28 147.6 143.28 
C 147.6 143.28 147.6 143.28 147.6 143.28 
C 147.6 143.28 147.6 143.28 147.6 143.28 
C 147.6 143.28 147.6 143.28 147.6 143.28 
C 147.6 143.28 147.6 143.28 147.6 143.28 
C 147.6 143.28 147.6 143.28 147.6 143.28 
C 147.6 143.28 147.6 143.28 147.6 143.28 
C 147.6 143.28 147.6 143.28 147.6 143.28 
C 147.6 143.28 147.6 143.28 147.6 143.28 
C 147.6 143.28 147.6 143.28 147.6 143.28 
C 147.6 143.28 147.6 143.28 147.6 143.28 
C 147.6 143.28 147.6 143.28 147.6 143.28 
C 147.6 143.28 147.6 143.28 147.6 143.28 
C 147.6 143.28 147.6 143.28 147.6 143.28 
M 256.32 143.28 
z
"/>
  </clipPath>
 </defs>
</svg>
