<?xml version="1.0" encoding="UTF-8" standalone="no"?>
<!-- Created with matplotlib (https://matplotlib.org/) -->

<svg
   height="576pt"
   version="1.1"
   viewBox="0 0 1080 576"
   width="1080pt"
   id="svg622"
   sodipodi:docname="PSD.svg"
   inkscape:version="1.2 (dc2aeda, 2022-05-15)"
   inkscape:export-filename="PSD.png"
   inkscape:export-xdpi="96"
   inkscape:export-ydpi="96"
   xmlns:inkscape="http://www.inkscape.org/namespaces/inkscape"
   xmlns:sodipodi="http://sodipodi.sourceforge.net/DTD/sodipodi-0.dtd"
   xmlns:xlink="http://www.w3.org/1999/xlink"
   xmlns="http://www.w3.org/2000/svg"
   xmlns:svg="http://www.w3.org/2000/svg"
   xmlns:rdf="http://www.w3.org/1999/02/22-rdf-syntax-ns#"
   xmlns:cc="http://creativecommons.org/ns#"
   xmlns:dc="http://purl.org/dc/elements/1.1/">
  <sodipodi:namedview
     id="namedview624"
     pagecolor="#ffffff"
     bordercolor="#000000"
     borderopacity="0.25"
     inkscape:showpageshadow="2"
     inkscape:pageopacity="0.0"
     inkscape:pagecheckerboard="0"
     inkscape:deskcolor="#d1d1d1"
     inkscape:document-units="pt"
     showgrid="false"
     inkscape:zoom="0.55047092"
     inkscape:cx="799.31561"
     inkscape:cy="342.43407"
     inkscape:window-width="1280"
     inkscape:window-height="1027"
     inkscape:window-x="0"
     inkscape:window-y="25"
     inkscape:window-maximized="0"
     inkscape:current-layer="legend_1" />
  <metadata
     id="metadata2">
    <rdf:RDF>
      <cc:Work>
        <dc:type
           rdf:resource="http://purl.org/dc/dcmitype/StillImage" />
        <dc:date>2022-07-22T10:51:39.499368</dc:date>
        <dc:format>image/svg+xml</dc:format>
        <dc:creator>
          <cc:Agent>
            <dc:title>Matplotlib v3.3.4, https://matplotlib.org/</dc:title>
          </cc:Agent>
        </dc:creator>
      </cc:Work>
    </rdf:RDF>
  </metadata>
  <defs
     id="defs6">
    <style
       type="text/css"
       id="style4">*{stroke-linecap:butt;stroke-linejoin:round;}</style>
  </defs>
  <g
     id="figure_1">
    <g
       id="patch_1">
      <path
         d="M 0 576  L 1080 576  L 1080 0  L 0 0  z "
         style="fill:none;"
         id="path8" />
    </g>
    <g
       id="axes_1">
      <g
         id="patch_2"
         style="fill:none">
        <path
           d="M 135 504  L 972 504  L 972 69.12  L 135 69.12  z "
           style="fill:none"
           id="path11" />
      </g>
      <g
         id="matplotlib.axis_1">
        <g
           id="xtick_1">
          <g
             id="line2d_1">
            <defs
               id="defs15">
              <path
                 d="M 0 0  L 0 3.5  "
                 id="m68737eceff"
                 style="stroke:#000000;stroke-width:0.8;" />
            </defs>
            <g
               id="g19">
              <use
                 style="stroke:#000000;stroke-width:0.8;"
                 x="173.045455"
                 xlink:href="#m68737eceff"
                 y="504"
                 id="use17" />
            </g>
          </g>
          <g
             id="text_1">
            <!-- 0 -->
            <g
               transform="translate(167.479205 523.1575)scale(0.16 -0.16)"
               id="g27">
              <defs
                 id="defs23">
                <path
                   d="M 46 36.53125  Q 46 50.203125 43.4375 55.78125  Q 40.875 61.375 34.8125 61.375  Q 28.765625 61.375 26.171875 55.78125  Q 23.578125 50.203125 23.578125 36.53125  Q 23.578125 22.703125 26.171875 17.03125  Q 28.765625 11.375 34.8125 11.375  Q 40.828125 11.375 43.40625 17.03125  Q 46 22.703125 46 36.53125  z M 64.796875 36.375  Q 64.796875 18.265625 56.984375 8.421875  Q 49.171875 -1.421875 34.8125 -1.421875  Q 20.40625 -1.421875 12.59375 8.421875  Q 4.78125 18.265625 4.78125 36.375  Q 4.78125 54.546875 12.59375 64.375  Q 20.40625 74.21875 34.8125 74.21875  Q 49.171875 74.21875 56.984375 64.375  Q 64.796875 54.546875 64.796875 36.375  z "
                   id="DejaVuSans-Bold-48" />
              </defs>
              <use
                 xlink:href="#DejaVuSans-Bold-48"
                 id="use25" />
            </g>
          </g>
        </g>
        <g
           id="xtick_2">
          <g
             id="line2d_2">
            <g
               id="g33">
              <use
                 style="stroke:#000000;stroke-width:0.8;"
                 x="299.863636"
                 xlink:href="#m68737eceff"
                 y="504"
                 id="use31" />
            </g>
          </g>
          <g
             id="text_2">
            <!-- 5 -->
            <g
               transform="translate(294.297386 523.1575)scale(0.16 -0.16)"
               id="g41">
              <defs
                 id="defs37">
                <path
                   d="M 10.59375 72.90625  L 57.328125 72.90625  L 57.328125 59.078125  L 25.59375 59.078125  L 25.59375 47.796875  Q 27.734375 48.390625 29.90625 48.703125  Q 32.078125 49.03125 34.421875 49.03125  Q 47.75 49.03125 55.171875 42.359375  Q 62.59375 35.6875 62.59375 23.78125  Q 62.59375 11.96875 54.515625 5.265625  Q 46.4375 -1.421875 32.078125 -1.421875  Q 25.875 -1.421875 19.796875 -0.21875  Q 13.71875 0.984375 7.71875 3.421875  L 7.71875 18.21875  Q 13.671875 14.796875 19.015625 13.078125  Q 24.359375 11.375 29.109375 11.375  Q 35.9375 11.375 39.859375 14.71875  Q 43.796875 18.0625 43.796875 23.78125  Q 43.796875 29.546875 39.859375 32.859375  Q 35.9375 36.1875 29.109375 36.1875  Q 25.046875 36.1875 20.453125 35.125  Q 15.875 34.078125 10.59375 31.890625  z "
                   id="DejaVuSans-Bold-53" />
              </defs>
              <use
                 xlink:href="#DejaVuSans-Bold-53"
                 id="use39" />
            </g>
          </g>
        </g>
        <g
           id="xtick_3">
          <g
             id="line2d_3">
            <g
               id="g47">
              <use
                 style="stroke:#000000;stroke-width:0.8;"
                 x="426.681818"
                 xlink:href="#m68737eceff"
                 y="504"
                 id="use45" />
            </g>
          </g>
          <g
             id="text_3">
            <!-- 10 -->
            <g
               transform="translate(415.549318 523.1575)scale(0.16 -0.16)"
               id="g57">
              <defs
                 id="defs51">
                <path
                   d="M 11.71875 12.984375  L 28.328125 12.984375  L 28.328125 60.109375  L 11.28125 56.59375  L 11.28125 69.390625  L 28.21875 72.90625  L 46.09375 72.90625  L 46.09375 12.984375  L 62.703125 12.984375  L 62.703125 0  L 11.71875 0  z "
                   id="DejaVuSans-Bold-49" />
              </defs>
              <use
                 xlink:href="#DejaVuSans-Bold-49"
                 id="use53" />
              <use
                 x="69.580078"
                 xlink:href="#DejaVuSans-Bold-48"
                 id="use55" />
            </g>
          </g>
        </g>
        <g
           id="xtick_4">
          <g
             id="line2d_4">
            <g
               id="g63">
              <use
                 style="stroke:#000000;stroke-width:0.8;"
                 x="553.5"
                 xlink:href="#m68737eceff"
                 y="504"
                 id="use61" />
            </g>
          </g>
          <g
             id="text_4">
            <!-- 15 -->
            <g
               transform="translate(542.3675 523.1575)scale(0.16 -0.16)"
               id="g70">
              <use
                 xlink:href="#DejaVuSans-Bold-49"
                 id="use66" />
              <use
                 x="69.580078"
                 xlink:href="#DejaVuSans-Bold-53"
                 id="use68" />
            </g>
          </g>
        </g>
        <g
           id="xtick_5">
          <g
             id="line2d_5">
            <g
               id="g76">
              <use
                 style="stroke:#000000;stroke-width:0.8;"
                 x="680.318182"
                 xlink:href="#m68737eceff"
                 y="504"
                 id="use74" />
            </g>
          </g>
          <g
             id="text_5">
            <!-- 20 -->
            <g
               transform="translate(669.185682 523.1575)scale(0.16 -0.16)"
               id="g86">
              <defs
                 id="defs80">
                <path
                   d="M 28.8125 13.8125  L 60.890625 13.8125  L 60.890625 0  L 7.90625 0  L 7.90625 13.8125  L 34.515625 37.3125  Q 38.09375 40.53125 39.796875 43.609375  Q 41.5 46.6875 41.5 50  Q 41.5 55.125 38.0625 58.25  Q 34.625 61.375 28.90625 61.375  Q 24.515625 61.375 19.28125 59.5  Q 14.0625 57.625 8.109375 53.90625  L 8.109375 69.921875  Q 14.453125 72.015625 20.65625 73.109375  Q 26.859375 74.21875 32.8125 74.21875  Q 45.90625 74.21875 53.15625 68.453125  Q 60.40625 62.703125 60.40625 52.390625  Q 60.40625 46.4375 57.328125 41.28125  Q 54.25 36.140625 44.390625 27.484375  z "
                   id="DejaVuSans-Bold-50" />
              </defs>
              <use
                 xlink:href="#DejaVuSans-Bold-50"
                 id="use82" />
              <use
                 x="69.580078"
                 xlink:href="#DejaVuSans-Bold-48"
                 id="use84" />
            </g>
          </g>
        </g>
        <g
           id="xtick_6">
          <g
             id="line2d_6">
            <g
               id="g92">
              <use
                 style="stroke:#000000;stroke-width:0.8;"
                 x="807.136364"
                 xlink:href="#m68737eceff"
                 y="504"
                 id="use90" />
            </g>
          </g>
          <g
             id="text_6">
            <!-- 25 -->
            <g
               transform="translate(796.003864 523.1575)scale(0.16 -0.16)"
               id="g99">
              <use
                 xlink:href="#DejaVuSans-Bold-50"
                 id="use95" />
              <use
                 x="69.580078"
                 xlink:href="#DejaVuSans-Bold-53"
                 id="use97" />
            </g>
          </g>
        </g>
        <g
           id="xtick_7">
          <g
             id="line2d_7">
            <g
               id="g105">
              <use
                 style="stroke:#000000;stroke-width:0.8;"
                 x="933.954545"
                 xlink:href="#m68737eceff"
                 y="504"
                 id="use103" />
            </g>
          </g>
          <g
             id="text_7">
            <!-- 30 -->
            <g
               transform="translate(922.822045 523.1575)scale(0.16 -0.16)"
               id="g115">
              <defs
                 id="defs109">
                <path
                   d="M 46.578125 39.3125  Q 53.953125 37.40625 57.78125 32.6875  Q 61.625 27.984375 61.625 20.703125  Q 61.625 9.859375 53.3125 4.21875  Q 45.015625 -1.421875 29.109375 -1.421875  Q 23.484375 -1.421875 17.84375 -0.515625  Q 12.203125 0.390625 6.6875 2.203125  L 6.6875 16.703125  Q 11.96875 14.0625 17.15625 12.71875  Q 22.359375 11.375 27.390625 11.375  Q 34.859375 11.375 38.84375 13.953125  Q 42.828125 16.546875 42.828125 21.390625  Q 42.828125 26.375 38.75 28.9375  Q 34.671875 31.5 26.703125 31.5  L 19.1875 31.5  L 19.1875 43.609375  L 27.09375 43.609375  Q 34.1875 43.609375 37.640625 45.828125  Q 41.109375 48.046875 41.109375 52.59375  Q 41.109375 56.78125 37.734375 59.078125  Q 34.375 61.375 28.21875 61.375  Q 23.6875 61.375 19.046875 60.34375  Q 14.40625 59.328125 9.8125 57.328125  L 9.8125 71.09375  Q 15.375 72.65625 20.84375 73.4375  Q 26.3125 74.21875 31.59375 74.21875  Q 45.796875 74.21875 52.84375 69.546875  Q 59.90625 64.890625 59.90625 55.515625  Q 59.90625 49.125 56.53125 45.046875  Q 53.171875 40.96875 46.578125 39.3125  z "
                   id="DejaVuSans-Bold-51" />
              </defs>
              <use
                 xlink:href="#DejaVuSans-Bold-51"
                 id="use111" />
              <use
                 x="69.580078"
                 xlink:href="#DejaVuSans-Bold-48"
                 id="use113" />
            </g>
          </g>
        </g>
        <g
           id="text_8">
          <!-- Frequency (Hz) -->
          <g
             transform="translate(485.225 542.625)scale(0.16 -0.16)"
             id="g162">
            <defs
               id="defs132">
              <path
                 d="M 9.1875 72.90625  L 59.90625 72.90625  L 59.90625 58.6875  L 27.984375 58.6875  L 27.984375 45.125  L 58.015625 45.125  L 58.015625 30.90625  L 27.984375 30.90625  L 27.984375 0  L 9.1875 0  z "
                 id="DejaVuSans-Bold-70" />
              <path
                 d="M 49.03125 39.796875  Q 46.734375 40.875 44.453125 41.375  Q 42.1875 41.890625 39.890625 41.890625  Q 33.15625 41.890625 29.515625 37.5625  Q 25.875 33.25 25.875 25.203125  L 25.875 0  L 8.40625 0  L 8.40625 54.6875  L 25.875 54.6875  L 25.875 45.703125  Q 29.25 51.078125 33.609375 53.53125  Q 37.984375 56 44.09375 56  Q 44.96875 56 45.984375 55.921875  Q 47.015625 55.859375 48.96875 55.609375  z "
                 id="DejaVuSans-Bold-114" />
              <path
                 d="M 62.984375 27.484375  L 62.984375 22.515625  L 22.125 22.515625  Q 22.75 16.359375 26.5625 13.28125  Q 30.375 10.203125 37.203125 10.203125  Q 42.71875 10.203125 48.5 11.84375  Q 54.296875 13.484375 60.40625 16.796875  L 60.40625 3.328125  Q 54.203125 0.984375 48 -0.21875  Q 41.796875 -1.421875 35.59375 -1.421875  Q 20.75 -1.421875 12.515625 6.125  Q 4.296875 13.671875 4.296875 27.296875  Q 4.296875 40.671875 12.375 48.328125  Q 20.453125 56 34.625 56  Q 47.515625 56 55.25 48.234375  Q 62.984375 40.484375 62.984375 27.484375  z M 45.015625 33.296875  Q 45.015625 38.28125 42.109375 41.328125  Q 39.203125 44.390625 34.515625 44.390625  Q 29.4375 44.390625 26.265625 41.53125  Q 23.09375 38.671875 22.3125 33.296875  z "
                 id="DejaVuSans-Bold-101" />
              <path
                 d="M 34.078125 43.3125  Q 28.515625 43.3125 25.5625 39.203125  Q 22.609375 35.109375 22.609375 27.296875  Q 22.609375 19.484375 25.5625 15.375  Q 28.515625 11.28125 34.078125 11.28125  Q 39.703125 11.28125 42.65625 15.375  Q 45.609375 19.484375 45.609375 27.296875  Q 45.609375 35.109375 42.65625 39.203125  Q 39.703125 43.3125 34.078125 43.3125  z M 45.609375 7.90625  Q 42 3.078125 37.640625 0.828125  Q 33.296875 -1.421875 27.59375 -1.421875  Q 17.484375 -1.421875 10.984375 6.609375  Q 4.5 14.65625 4.5 27.296875  Q 4.5 39.9375 10.984375 47.921875  Q 17.484375 55.90625 27.59375 55.90625  Q 33.296875 55.90625 37.640625 53.65625  Q 42 51.421875 45.609375 46.578125  L 45.609375 54.6875  L 63.1875 54.6875  L 63.1875 -20.796875  L 45.609375 -20.796875  z "
                 id="DejaVuSans-Bold-113" />
              <path
                 d="M 7.8125 21.296875  L 7.8125 54.6875  L 25.390625 54.6875  L 25.390625 49.21875  Q 25.390625 44.78125 25.34375 38.0625  Q 25.296875 31.34375 25.296875 29.109375  Q 25.296875 22.515625 25.640625 19.609375  Q 25.984375 16.703125 26.8125 15.375  Q 27.875 13.671875 29.609375 12.734375  Q 31.34375 11.8125 33.59375 11.8125  Q 39.0625 11.8125 42.1875 16.015625  Q 45.3125 20.21875 45.3125 27.6875  L 45.3125 54.6875  L 62.796875 54.6875  L 62.796875 0  L 45.3125 0  L 45.3125 7.90625  Q 41.359375 3.125 36.9375 0.84375  Q 32.515625 -1.421875 27.203125 -1.421875  Q 17.71875 -1.421875 12.765625 4.390625  Q 7.8125 10.203125 7.8125 21.296875  z "
                 id="DejaVuSans-Bold-117" />
              <path
                 d="M 63.375 33.296875  L 63.375 0  L 45.796875 0  L 45.796875 5.421875  L 45.796875 25.484375  Q 45.796875 32.5625 45.484375 35.25  Q 45.171875 37.9375 44.390625 39.203125  Q 43.359375 40.921875 41.59375 41.875  Q 39.84375 42.828125 37.59375 42.828125  Q 32.125 42.828125 29 38.59375  Q 25.875 34.375 25.875 26.90625  L 25.875 0  L 8.40625 0  L 8.40625 54.6875  L 25.875 54.6875  L 25.875 46.6875  Q 29.828125 51.46875 34.265625 53.734375  Q 38.71875 56 44.09375 56  Q 53.5625 56 58.46875 50.1875  Q 63.375 44.390625 63.375 33.296875  z "
                 id="DejaVuSans-Bold-110" />
              <path
                 d="M 52.59375 52.984375  L 52.59375 38.71875  Q 49.03125 41.15625 45.4375 42.328125  Q 41.84375 43.5 37.984375 43.5  Q 30.671875 43.5 26.59375 39.234375  Q 22.515625 34.96875 22.515625 27.296875  Q 22.515625 19.625 26.59375 15.34375  Q 30.671875 11.078125 37.984375 11.078125  Q 42.09375 11.078125 45.78125 12.296875  Q 49.46875 13.53125 52.59375 15.921875  L 52.59375 1.609375  Q 48.484375 0.09375 44.265625 -0.65625  Q 40.046875 -1.421875 35.796875 -1.421875  Q 21 -1.421875 12.640625 6.171875  Q 4.296875 13.765625 4.296875 27.296875  Q 4.296875 40.828125 12.640625 48.40625  Q 21 56 35.796875 56  Q 40.09375 56 44.265625 55.25  Q 48.4375 54.5 52.59375 52.984375  z "
                 id="DejaVuSans-Bold-99" />
              <path
                 d="M 1.21875 54.6875  L 18.703125 54.6875  L 33.40625 17.578125  L 45.90625 54.6875  L 63.375 54.6875  L 40.375 -5.171875  Q 36.921875 -14.3125 32.296875 -17.9375  Q 27.6875 -21.578125 20.125 -21.578125  L 10.015625 -21.578125  L 10.015625 -10.109375  L 15.484375 -10.109375  Q 19.921875 -10.109375 21.9375 -8.6875  Q 23.96875 -7.28125 25.09375 -3.609375  L 25.59375 -2.09375  z "
                 id="DejaVuSans-Bold-121" />
              <path
                 id="DejaVuSans-Bold-32" />
              <path
                 d="M 37.703125 -13.1875  L 23.1875 -13.1875  Q 15.71875 -1.125 12.15625 9.734375  Q 8.59375 20.609375 8.59375 31.296875  Q 8.59375 42 12.171875 52.953125  Q 15.765625 63.921875 23.1875 75.875  L 37.703125 75.875  Q 31.453125 64.3125 28.328125 53.25  Q 25.203125 42.1875 25.203125 31.390625  Q 25.203125 20.609375 28.296875 9.515625  Q 31.390625 -1.5625 37.703125 -13.1875  z "
                 id="DejaVuSans-Bold-40" />
              <path
                 d="M 9.1875 72.90625  L 27.984375 72.90625  L 27.984375 45.125  L 55.71875 45.125  L 55.71875 72.90625  L 74.515625 72.90625  L 74.515625 0  L 55.71875 0  L 55.71875 30.90625  L 27.984375 30.90625  L 27.984375 0  L 9.1875 0  z "
                 id="DejaVuSans-Bold-72" />
              <path
                 d="M 5.71875 54.6875  L 53.421875 54.6875  L 53.421875 42.484375  L 24.609375 12.5  L 53.421875 12.5  L 53.421875 0  L 4.5 0  L 4.5 12.203125  L 33.296875 42.1875  L 5.71875 42.1875  z "
                 id="DejaVuSans-Bold-122" />
              <path
                 d="M 8.015625 -13.1875  Q 14.265625 -1.5625 17.390625 9.515625  Q 20.515625 20.609375 20.515625 31.390625  Q 20.515625 42.1875 17.390625 53.25  Q 14.265625 64.3125 8.015625 75.875  L 22.515625 75.875  Q 29.9375 63.921875 33.515625 52.953125  Q 37.109375 42 37.109375 31.296875  Q 37.109375 20.609375 33.546875 9.734375  Q 29.984375 -1.125 22.515625 -13.1875  z "
                 id="DejaVuSans-Bold-41" />
            </defs>
            <use
               xlink:href="#DejaVuSans-Bold-70"
               id="use134" />
            <use
               x="61.935547"
               xlink:href="#DejaVuSans-Bold-114"
               id="use136" />
            <use
               x="111.251953"
               xlink:href="#DejaVuSans-Bold-101"
               id="use138" />
            <use
               x="179.074219"
               xlink:href="#DejaVuSans-Bold-113"
               id="use140" />
            <use
               x="250.65625"
               xlink:href="#DejaVuSans-Bold-117"
               id="use142" />
            <use
               x="321.847656"
               xlink:href="#DejaVuSans-Bold-101"
               id="use144" />
            <use
               x="389.669922"
               xlink:href="#DejaVuSans-Bold-110"
               id="use146" />
            <use
               x="460.861328"
               xlink:href="#DejaVuSans-Bold-99"
               id="use148" />
            <use
               x="520.138672"
               xlink:href="#DejaVuSans-Bold-121"
               id="use150" />
            <use
               x="585.324219"
               xlink:href="#DejaVuSans-Bold-32"
               id="use152" />
            <use
               x="620.138672"
               xlink:href="#DejaVuSans-Bold-40"
               id="use154" />
            <use
               x="665.841797"
               xlink:href="#DejaVuSans-Bold-72"
               id="use156" />
            <use
               x="749.533203"
               xlink:href="#DejaVuSans-Bold-122"
               id="use158" />
            <use
               x="807.736328"
               xlink:href="#DejaVuSans-Bold-41"
               id="use160" />
          </g>
        </g>
      </g>
      <g
         id="matplotlib.axis_2">
        <g
           id="ytick_1">
          <g
             id="line2d_8">
            <defs
               id="defs167">
              <path
                 d="M 0 0  L -3.5 0  "
                 id="m7ee731e251"
                 style="stroke:#000000;stroke-width:0.8;" />
            </defs>
            <g
               id="g171">
              <use
                 style="stroke:#000000;stroke-width:0.8;"
                 x="135"
                 xlink:href="#m7ee731e251"
                 y="424.556432"
                 id="use169" />
            </g>
          </g>
          <g
             id="text_9">
            <!-- $\mathdefault{10^{-13}}$ -->
            <g
               transform="translate(80.16 430.635182)scale(0.16 -0.16)"
               id="g187">
              <defs
                 id="defs175">
                <path
                   d="M 10.59375 37.109375  L 73.1875 37.109375  L 73.1875 25.59375  L 10.59375 25.59375  z "
                   id="DejaVuSans-Bold-8722" />
              </defs>
              <use
                 transform="translate(0 0.765625)"
                 xlink:href="#DejaVuSans-Bold-49"
                 id="use177" />
              <use
                 transform="translate(69.580078 0.765625)"
                 xlink:href="#DejaVuSans-Bold-48"
                 id="use179" />
              <use
                 transform="translate(140.117188 39.046875)scale(0.7)"
                 xlink:href="#DejaVuSans-Bold-8722"
                 id="use181" />
              <use
                 transform="translate(198.769531 39.046875)scale(0.7)"
                 xlink:href="#DejaVuSans-Bold-49"
                 id="use183" />
              <use
                 transform="translate(247.475586 39.046875)scale(0.7)"
                 xlink:href="#DejaVuSans-Bold-51"
                 id="use185" />
            </g>
          </g>
        </g>
        <g
           id="ytick_2">
          <g
             id="line2d_9">
            <g
               id="g193">
              <use
                 style="stroke:#000000;stroke-width:0.8;"
                 x="135"
                 xlink:href="#m7ee731e251"
                 y="260.907225"
                 id="use191" />
            </g>
          </g>
          <g
             id="text_10">
            <!-- $\mathdefault{10^{-12}}$ -->
            <g
               transform="translate(80.16 266.985975)scale(0.16 -0.16)"
               id="g206">
              <use
                 transform="translate(0 0.765625)"
                 xlink:href="#DejaVuSans-Bold-49"
                 id="use196" />
              <use
                 transform="translate(69.580078 0.765625)"
                 xlink:href="#DejaVuSans-Bold-48"
                 id="use198" />
              <use
                 transform="translate(140.117188 39.046875)scale(0.7)"
                 xlink:href="#DejaVuSans-Bold-8722"
                 id="use200" />
              <use
                 transform="translate(198.769531 39.046875)scale(0.7)"
                 xlink:href="#DejaVuSans-Bold-49"
                 id="use202" />
              <use
                 transform="translate(247.475586 39.046875)scale(0.7)"
                 xlink:href="#DejaVuSans-Bold-50"
                 id="use204" />
            </g>
          </g>
        </g>
        <g
           id="ytick_3">
          <g
             id="line2d_10">
            <g
               id="g212">
              <use
                 style="stroke:#000000;stroke-width:0.8;"
                 x="135"
                 xlink:href="#m7ee731e251"
                 y="97.258018"
                 id="use210" />
            </g>
          </g>
          <g
             id="text_11">
            <!-- $\mathdefault{10^{-11}}$ -->
            <g
               transform="translate(80.16 103.336768)scale(0.16 -0.16)"
               id="g225">
              <use
                 transform="translate(0 0.684375)"
                 xlink:href="#DejaVuSans-Bold-49"
                 id="use215" />
              <use
                 transform="translate(69.580078 0.684375)"
                 xlink:href="#DejaVuSans-Bold-48"
                 id="use217" />
              <use
                 transform="translate(140.117188 38.965625)scale(0.7)"
                 xlink:href="#DejaVuSans-Bold-8722"
                 id="use219" />
              <use
                 transform="translate(198.769531 38.965625)scale(0.7)"
                 xlink:href="#DejaVuSans-Bold-49"
                 id="use221" />
              <use
                 transform="translate(247.475586 38.965625)scale(0.7)"
                 xlink:href="#DejaVuSans-Bold-49"
                 id="use223" />
            </g>
          </g>
        </g>
        <g
           id="ytick_4">
          <g
             id="line2d_11">
            <defs
               id="defs230">
              <path
                 d="M 0 0  L -2 0  "
                 id="m1f4401ef36"
                 style="stroke:#000000;stroke-width:0.6;" />
            </defs>
            <g
               id="g234">
              <use
                 style="stroke:#000000;stroke-width:0.6;"
                 x="135"
                 xlink:href="#m1f4401ef36"
                 y="489.678998"
                 id="use232" />
            </g>
          </g>
        </g>
        <g
           id="ytick_5">
          <g
             id="line2d_12">
            <g
               id="g240">
              <use
                 style="stroke:#000000;stroke-width:0.6;"
                 x="135"
                 xlink:href="#m1f4401ef36"
                 y="473.819752"
                 id="use238" />
            </g>
          </g>
        </g>
        <g
           id="ytick_6">
          <g
             id="line2d_13">
            <g
               id="g246">
              <use
                 style="stroke:#000000;stroke-width:0.6;"
                 x="135"
                 xlink:href="#m1f4401ef36"
                 y="460.861804"
                 id="use244" />
            </g>
          </g>
        </g>
        <g
           id="ytick_7">
          <g
             id="line2d_14">
            <g
               id="g252">
              <use
                 style="stroke:#000000;stroke-width:0.6;"
                 x="135"
                 xlink:href="#m1f4401ef36"
                 y="449.906015"
                 id="use250" />
            </g>
          </g>
        </g>
        <g
           id="ytick_8">
          <g
             id="line2d_15">
            <g
               id="g258">
              <use
                 style="stroke:#000000;stroke-width:0.6;"
                 x="135"
                 xlink:href="#m1f4401ef36"
                 y="440.415678"
                 id="use256" />
            </g>
          </g>
        </g>
        <g
           id="ytick_9">
          <g
             id="line2d_16">
            <g
               id="g264">
              <use
                 style="stroke:#000000;stroke-width:0.6;"
                 x="135"
                 xlink:href="#m1f4401ef36"
                 y="432.044609"
                 id="use262" />
            </g>
          </g>
        </g>
        <g
           id="ytick_10">
          <g
             id="line2d_17">
            <g
               id="g270">
              <use
                 style="stroke:#000000;stroke-width:0.6;"
                 x="135"
                 xlink:href="#m1f4401ef36"
                 y="375.293112"
                 id="use268" />
            </g>
          </g>
        </g>
        <g
           id="ytick_11">
          <g
             id="line2d_18">
            <g
               id="g276">
              <use
                 style="stroke:#000000;stroke-width:0.6;"
                 x="135"
                 xlink:href="#m1f4401ef36"
                 y="346.475917"
                 id="use274" />
            </g>
          </g>
        </g>
        <g
           id="ytick_12">
          <g
             id="line2d_19">
            <g
               id="g282">
              <use
                 style="stroke:#000000;stroke-width:0.6;"
                 x="135"
                 xlink:href="#m1f4401ef36"
                 y="326.029792"
                 id="use280" />
            </g>
          </g>
        </g>
        <g
           id="ytick_13">
          <g
             id="line2d_20">
            <g
               id="g288">
              <use
                 style="stroke:#000000;stroke-width:0.6;"
                 x="135"
                 xlink:href="#m1f4401ef36"
                 y="310.170545"
                 id="use286" />
            </g>
          </g>
        </g>
        <g
           id="ytick_14">
          <g
             id="line2d_21">
            <g
               id="g294">
              <use
                 style="stroke:#000000;stroke-width:0.6;"
                 x="135"
                 xlink:href="#m1f4401ef36"
                 y="297.212597"
                 id="use292" />
            </g>
          </g>
        </g>
        <g
           id="ytick_15">
          <g
             id="line2d_22">
            <g
               id="g300">
              <use
                 style="stroke:#000000;stroke-width:0.6;"
                 x="135"
                 xlink:href="#m1f4401ef36"
                 y="286.256808"
                 id="use298" />
            </g>
          </g>
        </g>
        <g
           id="ytick_16">
          <g
             id="line2d_23">
            <g
               id="g306">
              <use
                 style="stroke:#000000;stroke-width:0.6;"
                 x="135"
                 xlink:href="#m1f4401ef36"
                 y="276.766472"
                 id="use304" />
            </g>
          </g>
        </g>
        <g
           id="ytick_17">
          <g
             id="line2d_24">
            <g
               id="g312">
              <use
                 style="stroke:#000000;stroke-width:0.6;"
                 x="135"
                 xlink:href="#m1f4401ef36"
                 y="268.395402"
                 id="use310" />
            </g>
          </g>
        </g>
        <g
           id="ytick_18">
          <g
             id="line2d_25">
            <g
               id="g318">
              <use
                 style="stroke:#000000;stroke-width:0.6;"
                 x="135"
                 xlink:href="#m1f4401ef36"
                 y="211.643905"
                 id="use316" />
            </g>
          </g>
        </g>
        <g
           id="ytick_19">
          <g
             id="line2d_26">
            <g
               id="g324">
              <use
                 style="stroke:#000000;stroke-width:0.6;"
                 x="135"
                 xlink:href="#m1f4401ef36"
                 y="182.82671"
                 id="use322" />
            </g>
          </g>
        </g>
        <g
           id="ytick_20">
          <g
             id="line2d_27">
            <g
               id="g330">
              <use
                 style="stroke:#000000;stroke-width:0.6;"
                 x="135"
                 xlink:href="#m1f4401ef36"
                 y="162.380585"
                 id="use328" />
            </g>
          </g>
        </g>
        <g
           id="ytick_21">
          <g
             id="line2d_28">
            <g
               id="g336">
              <use
                 style="stroke:#000000;stroke-width:0.6;"
                 x="135"
                 xlink:href="#m1f4401ef36"
                 y="146.521338"
                 id="use334" />
            </g>
          </g>
        </g>
        <g
           id="ytick_22">
          <g
             id="line2d_29">
            <g
               id="g342">
              <use
                 style="stroke:#000000;stroke-width:0.6;"
                 x="135"
                 xlink:href="#m1f4401ef36"
                 y="133.56339"
                 id="use340" />
            </g>
          </g>
        </g>
        <g
           id="ytick_23">
          <g
             id="line2d_30">
            <g
               id="g348">
              <use
                 style="stroke:#000000;stroke-width:0.6;"
                 x="135"
                 xlink:href="#m1f4401ef36"
                 y="122.607601"
                 id="use346" />
            </g>
          </g>
        </g>
        <g
           id="ytick_24">
          <g
             id="line2d_31">
            <g
               id="g354">
              <use
                 style="stroke:#000000;stroke-width:0.6;"
                 x="135"
                 xlink:href="#m1f4401ef36"
                 y="113.117265"
                 id="use352" />
            </g>
          </g>
        </g>
        <g
           id="ytick_25">
          <g
             id="line2d_32">
            <g
               id="g360">
              <use
                 style="stroke:#000000;stroke-width:0.6;"
                 x="135"
                 xlink:href="#m1f4401ef36"
                 y="104.746195"
                 id="use358" />
            </g>
          </g>
        </g>
        <g
           id="text_12">
          <!-- Magnectic field (T/$\sqrt{Hz}$) -->
          <g
             transform="translate(72.64 392.4)rotate(-90)scale(0.16 -0.16)"
             id="g427">
            <defs
               id="defs377">
              <path
                 d="M 9.1875 72.90625  L 33.109375 72.90625  L 49.703125 33.890625  L 66.40625 72.90625  L 90.28125 72.90625  L 90.28125 0  L 72.515625 0  L 72.515625 53.328125  L 55.71875 14.015625  L 43.796875 14.015625  L 27 53.328125  L 27 0  L 9.1875 0  z "
                 id="DejaVuSans-Bold-77" />
              <path
                 d="M 32.90625 24.609375  Q 27.4375 24.609375 24.671875 22.75  Q 21.921875 20.90625 21.921875 17.28125  Q 21.921875 13.96875 24.140625 12.078125  Q 26.375 10.203125 30.328125 10.203125  Q 35.25 10.203125 38.625 13.734375  Q 42 17.28125 42 22.609375  L 42 24.609375  z M 59.625 31.203125  L 59.625 0  L 42 0  L 42 8.109375  Q 38.484375 3.125 34.078125 0.84375  Q 29.6875 -1.421875 23.390625 -1.421875  Q 14.890625 -1.421875 9.59375 3.53125  Q 4.296875 8.5 4.296875 16.40625  Q 4.296875 26.03125 10.90625 30.515625  Q 17.53125 35.015625 31.6875 35.015625  L 42 35.015625  L 42 36.375  Q 42 40.53125 38.71875 42.453125  Q 35.453125 44.390625 28.515625 44.390625  Q 22.90625 44.390625 18.0625 43.265625  Q 13.234375 42.140625 9.078125 39.890625  L 9.078125 53.21875  Q 14.703125 54.59375 20.359375 55.296875  Q 26.03125 56 31.6875 56  Q 46.484375 56 53.046875 50.171875  Q 59.625 44.34375 59.625 31.203125  z "
                 id="DejaVuSans-Bold-97" />
              <path
                 d="M 45.609375 9.28125  Q 42 4.5 37.640625 2.25  Q 33.296875 0 27.59375 0  Q 17.578125 0 11.03125 7.875  Q 4.5 15.765625 4.5 27.984375  Q 4.5 40.234375 11.03125 48.0625  Q 17.578125 55.90625 27.59375 55.90625  Q 33.296875 55.90625 37.640625 53.65625  Q 42 51.421875 45.609375 46.578125  L 45.609375 54.6875  L 63.1875 54.6875  L 63.1875 5.515625  Q 63.1875 -7.671875 54.859375 -14.625  Q 46.53125 -21.578125 30.71875 -21.578125  Q 25.59375 -21.578125 20.796875 -20.796875  Q 16.015625 -20.015625 11.1875 -18.40625  L 11.1875 -4.78125  Q 15.765625 -7.421875 20.15625 -8.71875  Q 24.5625 -10.015625 29 -10.015625  Q 37.59375 -10.015625 41.59375 -6.25  Q 45.609375 -2.484375 45.609375 5.515625  z M 34.078125 43.3125  Q 28.65625 43.3125 25.625 39.296875  Q 22.609375 35.296875 22.609375 27.984375  Q 22.609375 20.453125 25.53125 16.578125  Q 28.46875 12.703125 34.078125 12.703125  Q 39.546875 12.703125 42.578125 16.703125  Q 45.609375 20.703125 45.609375 27.984375  Q 45.609375 35.296875 42.578125 39.296875  Q 39.546875 43.3125 34.078125 43.3125  z "
                 id="DejaVuSans-Bold-103" />
              <path
                 d="M 27.484375 70.21875  L 27.484375 54.6875  L 45.515625 54.6875  L 45.515625 42.1875  L 27.484375 42.1875  L 27.484375 19  Q 27.484375 15.1875 29 13.84375  Q 30.515625 12.5 35.015625 12.5  L 44 12.5  L 44 0  L 29 0  Q 18.65625 0 14.328125 4.3125  Q 10.015625 8.640625 10.015625 19  L 10.015625 42.1875  L 1.3125 42.1875  L 1.3125 54.6875  L 10.015625 54.6875  L 10.015625 70.21875  z "
                 id="DejaVuSans-Bold-116" />
              <path
                 d="M 8.40625 54.6875  L 25.875 54.6875  L 25.875 0  L 8.40625 0  z M 8.40625 75.984375  L 25.875 75.984375  L 25.875 61.71875  L 8.40625 61.71875  z "
                 id="DejaVuSans-Bold-105" />
              <path
                 d="M 44.390625 75.984375  L 44.390625 64.5  L 34.71875 64.5  Q 31 64.5 29.53125 63.15625  Q 28.078125 61.8125 28.078125 58.5  L 28.078125 54.6875  L 43.015625 54.6875  L 43.015625 42.1875  L 28.078125 42.1875  L 28.078125 0  L 10.59375 0  L 10.59375 42.1875  L 1.90625 42.1875  L 1.90625 54.6875  L 10.59375 54.6875  L 10.59375 58.5  Q 10.59375 67.4375 15.578125 71.703125  Q 20.5625 75.984375 31 75.984375  z "
                 id="DejaVuSans-Bold-102" />
              <path
                 d="M 8.40625 75.984375  L 25.875 75.984375  L 25.875 0  L 8.40625 0  z "
                 id="DejaVuSans-Bold-108" />
              <path
                 d="M 45.609375 46.6875  L 45.609375 75.984375  L 63.1875 75.984375  L 63.1875 0  L 45.609375 0  L 45.609375 7.90625  Q 42 3.078125 37.640625 0.828125  Q 33.296875 -1.421875 27.59375 -1.421875  Q 17.484375 -1.421875 10.984375 6.609375  Q 4.5 14.65625 4.5 27.296875  Q 4.5 39.9375 10.984375 47.96875  Q 17.484375 56 27.59375 56  Q 33.25 56 37.625 53.734375  Q 42 51.46875 45.609375 46.6875  z M 34.078125 11.28125  Q 39.703125 11.28125 42.65625 15.375  Q 45.609375 19.484375 45.609375 27.296875  Q 45.609375 35.109375 42.65625 39.203125  Q 39.703125 43.3125 34.078125 43.3125  Q 28.515625 43.3125 25.5625 39.203125  Q 22.609375 35.109375 22.609375 27.296875  Q 22.609375 19.484375 25.5625 15.375  Q 28.515625 11.28125 34.078125 11.28125  z "
                 id="DejaVuSans-Bold-100" />
              <path
                 d="M 0.484375 72.90625  L 67.671875 72.90625  L 67.671875 58.6875  L 43.5 58.6875  L 43.5 0  L 24.703125 0  L 24.703125 58.6875  L 0.484375 58.6875  z "
                 id="DejaVuSans-Bold-84" />
              <path
                 d="M 25.6875 72.90625  L 36.53125 72.90625  L 10.796875 -9.28125  L 0 -9.28125  z "
                 id="DejaVuSans-Bold-47" />
              <path
                 d="M 111.90625 158.796875  L 55.703125 -24.09375  L 48 -24.09375  L 24.90625 48.90625  Q 23.703125 52.90625 22.796875 54.15625  Q 21.90625 55.40625 20.59375 55.40625  Q 18.296875 55.40625 13.203125 51.296875  L 10.90625 55.09375  L 27.90625 68.203125  L 33.296875 68.203125  L 54 2.296875  L 54.40625 2.296875  L 102.40625 158.796875  z "
                 id="STIXSizeOneSym-Bold-8730" />
              <path
                 d="M 16.3125 72.90625  L 35.109375 72.90625  L 29.6875 45.125  L 57.421875 45.125  L 62.796875 72.90625  L 81.59375 72.90625  L 67.390625 0  L 48.578125 0  L 54.59375 30.90625  L 26.90625 30.90625  L 20.90625 0  L 2.09375 0  z "
                 id="DejaVuSans-BoldOblique-72" />
              <path
                 d="M 10.890625 54.6875  L 58.59375 54.6875  L 56.203125 42.484375  L 22.125 12.5  L 50.390625 12.5  L 48 0  L -0.875 0  L 1.421875 12.203125  L 35.59375 42.1875  L 8.5 42.1875  z "
                 id="DejaVuSans-BoldOblique-122" />
            </defs>
            <use
               transform="translate(0 0.75)"
               xlink:href="#DejaVuSans-Bold-77"
               id="use379" />
            <use
               transform="translate(99.511719 0.75)"
               xlink:href="#DejaVuSans-Bold-97"
               id="use381" />
            <use
               transform="translate(166.992188 0.75)"
               xlink:href="#DejaVuSans-Bold-103"
               id="use383" />
            <use
               transform="translate(238.574219 0.75)"
               xlink:href="#DejaVuSans-Bold-110"
               id="use385" />
            <use
               transform="translate(309.765625 0.75)"
               xlink:href="#DejaVuSans-Bold-101"
               id="use387" />
            <use
               transform="translate(377.587891 0.75)"
               xlink:href="#DejaVuSans-Bold-99"
               id="use389" />
            <use
               transform="translate(436.865234 0.75)"
               xlink:href="#DejaVuSans-Bold-116"
               id="use391" />
            <use
               transform="translate(484.667969 0.75)"
               xlink:href="#DejaVuSans-Bold-105"
               id="use393" />
            <use
               transform="translate(518.945312 0.75)"
               xlink:href="#DejaVuSans-Bold-99"
               id="use395" />
            <use
               transform="translate(578.222656 0.75)"
               xlink:href="#DejaVuSans-Bold-32"
               id="use397" />
            <use
               transform="translate(613.037109 0.75)"
               xlink:href="#DejaVuSans-Bold-102"
               id="use399" />
            <use
               transform="translate(656.542969 0.75)"
               xlink:href="#DejaVuSans-Bold-105"
               id="use401" />
            <use
               transform="translate(690.820312 0.75)"
               xlink:href="#DejaVuSans-Bold-101"
               id="use403" />
            <use
               transform="translate(758.642578 0.75)"
               xlink:href="#DejaVuSans-Bold-108"
               id="use405" />
            <use
               transform="translate(792.919922 0.75)"
               xlink:href="#DejaVuSans-Bold-100"
               id="use407" />
            <use
               transform="translate(864.501953 0.75)"
               xlink:href="#DejaVuSans-Bold-32"
               id="use409" />
            <use
               transform="translate(899.316406 0.75)"
               xlink:href="#DejaVuSans-Bold-40"
               id="use411" />
            <use
               transform="translate(945.019531 0.75)"
               xlink:href="#DejaVuSans-Bold-84"
               id="use413" />
            <use
               transform="translate(1013.232422 0.75)"
               xlink:href="#DejaVuSans-Bold-47"
               id="use415" />
            <use
               transform="translate(1049.755859 14.484375)scale(0.5695)"
               xlink:href="#STIXSizeOneSym-Bold-8730"
               id="use417" />
            <use
               transform="translate(1122.732864 0.84375)"
               xlink:href="#DejaVuSans-BoldOblique-72"
               id="use419" />
            <use
               transform="translate(1206.424271 0.84375)"
               xlink:href="#DejaVuSans-BoldOblique-122"
               id="use421" />
            <use
               transform="translate(1277.127396 0.75)"
               xlink:href="#DejaVuSans-Bold-41"
               id="use423" />
            <path
               d="M 1110.232864 98.5  L 1110.232864 104.75  L 1277.127396 104.75  L 1277.127396 98.5  L 1110.232864 98.5  z "
               id="path425" />
          </g>
        </g>
      </g>
      <g
         id="line2d_33">
        <path
           clip-path="url(#p3f7845b537)"
           d="M 173.045455 260.10183  L 188.897727 187.678126  L 204.75 195.697333  L 220.602273 207.730376  L 236.454545 246.158311  L 252.306818 295.862253  L 268.159091 265.47412  L 284.011364 284.76778  L 299.863636 313.288065  L 315.715909 328.046584  L 331.568182 332.717176  L 347.420455 386.593915  L 363.272727 413.941862  L 379.125 406.60245  L 394.977273 396.355779  L 410.829545 380.841377  L 426.681818 379.184985  L 442.534091 403.763472  L 458.386364 419.377719  L 474.238636 427.90923  L 490.090909 428.106525  L 505.943182 431.537307  L 521.795455 431.461626  L 537.647727 428.366377  L 553.5 434.883557  L 569.352273 435.954775  L 585.204545 440.764922  L 601.056818 436.396027  L 616.909091 434.361142  L 632.761364 437.775529  L 648.613636 432.868753  L 664.465909 423.089649  L 680.318182 436.287166  L 696.170455 447.498202  L 712.022727 454.083303  L 727.875 458.157234  L 743.727273 466.148836  L 759.579545 468.36247  L 775.431818 472.836585  L 791.284091 474.480294  L 807.136364 478.6035  L 822.988636 476.943197  L 838.840909 477.033083  L 854.693182 477.54394  L 870.545455 481.207784  L 886.397727 484.232727  L 902.25 479.124154  L 918.102273 483.909809  L 933.954545 483.390139  "
           style="fill:none;stroke:#1f77b4;stroke-linecap:square;stroke-width:4;"
           id="path431" />
      </g>
      <g
         id="line2d_34">
        <path
           clip-path="url(#p3f7845b537)"
           d="M 173.045455 162.949118  L 188.897727 88.887273  L 204.75 153.120353  L 220.602273 221.562395  L 236.454545 253.672693  L 252.306818 254.339711  L 268.159091 234.750142  L 284.011364 267.795221  L 299.863636 292.109839  L 315.715909 306.495095  L 331.568182 303.499633  L 347.420455 312.583997  L 363.272727 313.162586  L 379.125 318.542503  L 394.977273 317.241695  L 410.829545 206.028867  L 426.681818 151.259566  L 442.534091 207.223807  L 458.386364 333.965886  L 474.238636 334.784563  L 490.090909 340.448303  L 505.943182 343.450355  L 521.795455 346.521222  L 537.647727 352.139435  L 553.5 354.475857  L 569.352273 364.413214  L 585.204545 365.423348  L 601.056818 368.999968  L 616.909091 370.345314  L 632.761364 379.886599  L 648.613636 383.443601  L 664.465909 316.542889  L 680.318182 265.292474  L 696.170455 320.242808  L 712.022727 402.221768  L 727.875 414.382529  L 743.727273 414.641558  L 759.579545 415.124441  L 775.431818 421.525166  L 791.284091 425.04156  L 807.136364 431.132076  L 822.988636 422.805528  L 838.840909 431.602912  L 854.693182 417.138318  L 870.545455 417.48449  L 886.397727 423.625634  L 902.25 413.892139  L 918.102273 401.4113  L 933.954545 361.076464  "
           style="fill:none;stroke:#ff7f0e;stroke-linecap:square;stroke-width:4;"
           id="path434" />
      </g>
      <g
         id="line2d_35">
        <path
           clip-path="url(#p3f7845b537)"
           d="M 173.045455 242.355811  L 188.897727 189.301086  L 204.75 208.883508  L 220.602273 249.271535  L 236.454545 288.678909  L 252.306818 286.890467  L 268.159091 263.343795  L 284.011364 299.942191  L 299.863636 356.784834  L 315.715909 378.311188  L 331.568182 376.342655  L 347.420455 378.363126  L 363.272727 407.816396  L 379.125 409.312323  L 394.977273 393.894333  L 410.829545 379.905584  L 426.681818 374.172326  L 442.534091 398.36161  L 458.386364 413.375142  L 474.238636 427.053218  L 490.090909 424.136894  L 505.943182 429.060602  L 521.795455 433.579612  L 537.647727 438.613386  L 553.5 437.185324  L 569.352273 441.288854  L 585.204545 437.969959  L 601.056818 442.014332  L 616.909091 438.132617  L 632.761364 436.31719  L 648.613636 434.906753  L 664.465909 427.871141  L 680.318182 429.817696  L 696.170455 440.518841  L 712.022727 451.596245  L 727.875 456.184922  L 743.727273 457.895084  L 759.579545 465.367791  L 775.431818 459.945368  L 791.284091 474.12769  L 807.136364 471.829879  L 822.988636 473.493758  L 838.840909 477.023184  L 854.693182 469.22425  L 870.545455 476.7786  L 886.397727 473.678174  L 902.25 476.033535  L 918.102273 472.501554  L 933.954545 468.814923  "
           style="fill:none;stroke:#2ca02c;stroke-linecap:square;stroke-width:4;"
           id="path437" />
      </g>
      <g
         id="patch_3">
        <path
           d="M 135 504  L 135 69.12  "
           style="fill:none;stroke:#000000;stroke-linecap:square;stroke-linejoin:miter;stroke-width:0.8;"
           id="path440" />
      </g>
      <g
         id="patch_5">
        <path
           d="M 135 504  L 972 504  "
           style="fill:none;stroke:#000000;stroke-linecap:square;stroke-linejoin:miter;stroke-width:0.8;"
           id="path446" />
      </g>
      <g
         id="legend_1"
         transform="matrix(1.411916,0,0,1.4623402,-397.30549,-35.437226)">
        <g
           id="patch_7">
          <path
             d="M 813.6525,152.375 H 960.8 q 3.2,0 3.2,-3.2 V 80.32 q 0,-3.2 -3.2,-3.2 H 813.6525 q -3.2,0 -3.2,3.2 v 68.855 q 0,3.2 3.2,3.2 z"
             style="opacity:0.8;fill:none;stroke:#aeaeae;stroke-linejoin:miter;stroke-width:1.34803442;stroke-dasharray:none;stroke-opacity:1"
             id="path534" />
        </g>
        <g
           id="line2d_36">
          <path
             d="m 816.8525,90.0775 h 32"
             style="fill:none;stroke:#1f77b4;stroke-width:4;stroke-linecap:square"
             id="path537" />
        </g>
        <g
           id="line2d_37" />
        <g
           id="text_14">
          <!-- tACS off -->
          <g
             transform="matrix(0.16,0,0,-0.16,861.6525,95.6775)"
             id="g563">
            <defs
               id="defs545">
              <path
                 d="M 53.421875,13.28125 H 24.03125 L 19.390625,0 H 0.484375 l 27,72.90625 H 49.90625 L 76.90625,0 H 58.015625 Z M 28.71875,26.8125 H 48.6875 l -9.96875,29 z"
                 id="DejaVuSans-Bold-65" />
              <path
                 d="m 67,4 q -5.1875,-2.6875 -10.796875,-4.046875 -5.609375,-1.375 -11.71875,-1.375 -18.21875,0 -28.859375,10.1875 Q 4.984375,18.953125 4.984375,36.375 q 0,17.484375 10.640625,27.65625 10.640625,10.1875 28.859375,10.1875 6.109375,0 11.71875,-1.375 Q 61.8125,71.484375 67,68.796875 V 53.71875 Q 61.765625,57.28125 56.6875,58.9375 51.609375,60.59375 46,60.59375 q -10.0625,0 -15.828125,-6.453125 -5.75,-6.4375 -5.75,-17.765625 0,-11.28125 5.75,-17.734375 5.765625,-6.4375 15.828125,-6.4375 5.609375,0 10.6875,1.65625 Q 61.765625,15.53125 67,19.09375 Z"
                 id="DejaVuSans-Bold-67" />
              <path
                 d="m 59.90625,70.609375 v -15.4375 q -6,2.6875 -11.71875,4.046875 -5.703125,1.375 -10.78125,1.375 -6.734375,0 -9.96875,-1.859375 -3.21875,-1.84375 -3.21875,-5.75 0,-2.9375 2.171875,-4.578125 2.171875,-1.625 7.890625,-2.796875 l 8,-1.609375 q 12.15625,-2.453125 17.28125,-7.4375 5.140625,-4.96875 5.140625,-14.15625 0,-12.046875 -7.15625,-17.9375 -7.15625,-5.890625 -21.859375,-5.890625 -6.921875,0 -13.90625,1.328125 Q 14.796875,1.21875 7.8125,3.8125 v 15.859375 q 6.984375,-3.703125 13.5,-5.59375 6.515625,-1.875 12.578125,-1.875 6.15625,0 9.421875,2.046875 3.265625,2.0625 3.265625,5.875 0,3.40625 -2.21875,5.265625 Q 42.140625,27.25 35.5,28.71875 l -7.28125,1.609375 q -10.9375,2.34375 -16,7.46875 -5.046875,5.125 -5.046875,13.8125 0,10.890625 7.03125,16.75 7.03125,5.859375 20.21875,5.859375 6.015625,0 12.359375,-0.90625 6.34375,-0.90625 13.125,-2.703125 z"
                 id="DejaVuSans-Bold-83" />
              <path
                 d="m 34.421875,43.5 q -5.8125,0 -8.859375,-4.171875 -3.046875,-4.171875 -3.046875,-12.03125 0,-7.859375 3.046875,-12.046875 3.046875,-4.171875 8.859375,-4.171875 5.71875,0 8.734375,4.171875 3.03125,4.1875 3.03125,12.046875 0,7.859375 -3.03125,12.03125 Q 40.140625,43.5 34.421875,43.5 Z m 0,12.5 q 14.109375,0 22.046875,-7.625 7.9375,-7.609375 7.9375,-21.078125 0,-13.484375 -7.9375,-21.109375 -7.9375,-7.609375 -22.046875,-7.609375 -14.15625,0 -22.140625,7.609375 -7.984375,7.625 -7.984375,21.109375 0,13.46875 7.984375,21.078125 Q 20.265625,56 34.421875,56 Z"
                 id="DejaVuSans-Bold-111" />
            </defs>
            <use
               xlink:href="#DejaVuSans-Bold-116"
               id="use547" />
            <use
               x="47.802734"
               xlink:href="#DejaVuSans-Bold-65"
               id="use549" />
            <use
               x="125.19531"
               xlink:href="#DejaVuSans-Bold-67"
               id="use551" />
            <use
               x="200.45898"
               xlink:href="#DejaVuSans-Bold-83"
               id="use553" />
            <use
               x="272.48047"
               xlink:href="#DejaVuSans-Bold-32"
               id="use555" />
            <use
               x="307.29492"
               xlink:href="#DejaVuSans-Bold-111"
               id="use557" />
            <use
               x="375.99609"
               xlink:href="#DejaVuSans-Bold-102"
               id="use559" />
            <use
               x="419.50195"
               xlink:href="#DejaVuSans-Bold-102"
               id="use561" />
          </g>
        </g>
        <g
           id="line2d_38">
          <path
             d="m 816.8525,113.5625 h 32"
             style="fill:none;stroke:#ff7f0e;stroke-width:4;stroke-linecap:square"
             id="path566" />
        </g>
        <g
           id="line2d_39" />
        <g
           id="text_15">
          <!-- tACS on -->
          <g
             transform="matrix(0.16,0,0,-0.16,861.6525,119.1625)"
             id="g584">
            <use
               xlink:href="#DejaVuSans-Bold-116"
               id="use570" />
            <use
               x="47.802734"
               xlink:href="#DejaVuSans-Bold-65"
               id="use572" />
            <use
               x="125.19531"
               xlink:href="#DejaVuSans-Bold-67"
               id="use574" />
            <use
               x="200.45898"
               xlink:href="#DejaVuSans-Bold-83"
               id="use576" />
            <use
               x="272.48047"
               xlink:href="#DejaVuSans-Bold-32"
               id="use578" />
            <use
               x="307.29492"
               xlink:href="#DejaVuSans-Bold-111"
               id="use580" />
            <use
               x="375.99609"
               xlink:href="#DejaVuSans-Bold-110"
               id="use582" />
          </g>
        </g>
        <g
           id="line2d_40">
          <path
             d="m 816.8525,137.0475 h 32"
             style="fill:none;stroke:#2ca02c;stroke-width:4;stroke-linecap:square"
             id="path587" />
        </g>
        <g
           id="line2d_41" />
        <g
           id="text_16">
          <!-- after SASS -->
          <g
             transform="matrix(0.16,0,0,-0.16,861.6525,142.6475)"
             id="g611">
            <use
               xlink:href="#DejaVuSans-Bold-97"
               id="use591" />
            <use
               x="67.480469"
               xlink:href="#DejaVuSans-Bold-102"
               id="use593" />
            <use
               x="110.98633"
               xlink:href="#DejaVuSans-Bold-116"
               id="use595" />
            <use
               x="158.78906"
               xlink:href="#DejaVuSans-Bold-101"
               id="use597" />
            <use
               x="226.61133"
               xlink:href="#DejaVuSans-Bold-114"
               id="use599" />
            <use
               x="275.92773"
               xlink:href="#DejaVuSans-Bold-32"
               id="use601" />
            <use
               x="310.74219"
               xlink:href="#DejaVuSans-Bold-83"
               id="use603" />
            <use
               x="382.76367"
               xlink:href="#DejaVuSans-Bold-65"
               id="use605" />
            <use
               x="460.15625"
               xlink:href="#DejaVuSans-Bold-83"
               id="use607" />
            <use
               x="527.67773"
               xlink:href="#DejaVuSans-Bold-83"
               id="use609" />
          </g>
        </g>
      </g>
    </g>
  </g>
  <defs
     id="defs620">
    <clipPath
       id="p3f7845b537">
      <rect
         height="434.88"
         width="837"
         x="135"
         y="69.12"
         id="rect617" />
    </clipPath>
  </defs>
</svg>
